# xmcd
#
# Track frame offsets:
# 150
# 15433
# 34667
# 64399
# 80646
# 99980
# 117063
# 136001
# 173249
# 193217
# 209049
# 231804
# 249657
# 263374
# 286463
# 308465
# 325741
#
# Disc length: 4736 seconds
#
#
# Revision: 0
# Processed by: cddbd v1.5.2PL0 Copyright (c) Steve Scherf et al.
# Submitted via: Nero 7, 11, 10, 0 
#
DISCID=e5127e11
DTITLE=Midwest Blues All-Stars - From Here To There
DYEAR=2005
DGENRE=Blues
TTITLE0=I Don't Know
TTITLE1=Mellow Down Easy
TTITLE2=Party Time
TTITLE3=29 Ways
TTITLE4=Shake It For Me
TTITLE5=Everybody Fishin'
TTITLE6=Shame
TTITLE7=Chicken A La Blues
TTITLE8=You Don't Have To Go
TTITLE9=Blow Wind
TTITLE10=Hootchie Cootchie Man
TTITLE11=Big Boss Man
TTITLE12=San-Ho-Zay
TTITLE13=The Sun Is Shining
TTITLE14=Off The Wall
TTITLE15=Walkin' Through The Park
TTITLE16=That's All Right
EXTD=
EXTT0=I Don't Know
EXTT1=Mellow Down Easy
EXTT2=Party Time
EXTT3=29 Ways
EXTT4=Shake It For Me
EXTT5=Everybody Fishin'
EXTT6=Shame
EXTT7=Chicken A La Blues
EXTT8=You Don't Have To Go
EXTT9=Blow Wind
EXTT10=Hootchie Cootchie Man
EXTT11=Big Boss Man
EXTT12=San-Ho-Zay
EXTT13=The Sun Is Shining
EXTT14=Off The Wall
EXTT15=Walkin' Through The Park
EXTT16=That's All Right
PLAYORDER=
